<svg xmlns="http://www.w3.org/2000/svg" xmlns:xlink="http://www.w3.org/1999/xlink" viewBox="0 0 500 350" width="500" height="350" preserveAspectRatio="xMidYMid meet" style="width: 100%; height: 100%; transform: translate3d(0px, 0px, 0px); content-visibility: visible;"><defs><clipPath id="__lottie_element_2"><rect width="500" height="350" x="0" y="0"></rect></clipPath><clipPath id="__lottie_element_4"><path d="M0,0 L500,0 L500,350 L0,350z"></path></clipPath></defs><g clip-path="url(#__lottie_element_2)"><g clip-path="url(#__lottie_element_4)" transform="matrix(1,0,0,1,0,0)" opacity="1" style="display: block;"><g transform="matrix(1.3799999952316284,0,0,1.3799999952316284,26.99477195739746,116.67948150634766)" opacity="1" style="display: block;"><g opacity="1" transform="matrix(1,0,0,1,15.682999610900879,126.7770004272461)"><path fill="rgb(3,23,0)" fill-opacity="1" d=" M15.432999610900879,0 C15.432999610900879,0.5410000085830688 8.52400016784668,0.9800000190734863 0.0010000000474974513,0.9800000190734863 C-8.522000312805176,0.9800000190734863 -15.432999610900879,0.5410000085830688 -15.432999610900879,0 C-15.432999610900879,-0.5419999957084656 -8.522000312805176,-0.9800000190734863 0.0010000000474974513,-0.9800000190734863 C8.52400016784668,-0.9800000190734863 15.432999610900879,-0.5419999957084656 15.432999610900879,0z"></path></g><g opacity="1" transform="matrix(1,0,0,1,202.1179962158203,143.44700622558594)"><path fill="rgb(201,172,148)" fill-opacity="1" d=" M-71.91600036621094,0 C-71.91600036621094,2.9010000228881836 -39.71799850463867,5.251999855041504 0.0010000000474974513,5.251999855041504 C39.71799850463867,5.251999855041504 71.91600036621094,2.9010000228881836 71.91600036621094,0 C71.91600036621094,-2.9000000953674316 39.71799850463867,-5.251999855041504 0.0010000000474974513,-5.251999855041504 C-39.71799850463867,-5.251999855041504 -71.91600036621094,-2.9000000953674316 -71.91600036621094,0z"></path></g><g opacity="1" transform="matrix(1,0,0,1,204.42100524902344,75.68399810791016)"><path fill="rgb(232,149,49)" fill-opacity="1" d=" M-56.83100128173828,53.30799865722656 C-55.547000885009766,54.590999603271484 -54.15299987792969,55.816001892089844 -52.64099884033203,56.9739990234375 C-45.08100128173828,62.77899932861328 -34.630001068115234,66.94000244140625 -20.74799919128418,68.3290023803711 C50.25,75.43399810791016 73.70700073242188,42.130001068115234 79.44200134277344,-9.112000465393066 C81.99600219726562,-31.94700050354004 76.01699829101562,-47.013999938964844 68.60099792480469,-56.70500183105469 C67.82599639892578,-57.715999603271484 67.03600311279297,-58.67100143432617 66.23699951171875,-59.56700134277344 C65.78700256347656,-60.07400131225586 65.32499694824219,-60.569000244140625 64.85099792480469,-61.051998138427734 C55.2760009765625,-70.83200073242188 41.45600128173828,-75.43399810791016 27.874000549316406,-73.1989974975586 C17.198999404907227,-71.44200134277344 7.500999927520752,-65.74099731445312 -0.36899998784065247,-54.34400177001953 C-12.954000473022461,-36.12099838256836 -1.0470000505447388,-20.45400047302246 -37.016998291015625,-19.4060001373291 C-64.54900360107422,-18.60300064086914 -81.99500274658203,28.204999923706055 -56.83100128173828,53.30799865722656z"></path></g><g opacity="1" transform="matrix(1,0,0,1,209.70199584960938,58.77899932861328)"><path fill="rgb(180,106,21)" fill-opacity="1" d=" M11.432000160217285,-25.97800064086914 C16.61199951171875,-37.69300079345703 32.89899826049805,-38.691001892089844 39.43899917602539,-27.67799949645996 C43.652000427246094,-20.58300018310547 46.277000427246094,-10.065999984741211 41.92399978637695,4.741000175476074 C32.22999954223633,37.71500015258789 13.831000328063965,36.39899826049805 10.239999771118164,36.808998107910156 C-6.244999885559082,38.691001892089844 -36.7140007019043,38.02799987792969 -41.99700164794922,23.945999145507812 C-46.277000427246094,12.53600025177002 -29.9060001373291,5.6539998054504395 -9.640999794006348,4.064000129699707 C3.0999999046325684,3.063999891281128 5.8979997634887695,-13.461000442504883 11.432000160217285,-25.97800064086914z"></path></g><g opacity="1" transform="matrix(1,0,0,1,209.70199584960938,58.52899932861328)"><path fill="rgb(180,106,21)" fill-opacity="1" d=" M11.432000160217285,-25.97800064086914 C16.61199951171875,-37.69300079345703 32.89899826049805,-38.691001892089844 39.43899917602539,-27.67799949645996 C43.652000427246094,-20.58300018310547 46.277000427246094,-10.065999984741211 41.92399978637695,4.741000175476074 C32.22999954223633,37.71500015258789 13.831000328063965,36.39899826049805 10.239999771118164,36.808998107910156 C-6.244999885559082,38.691001892089844 -36.7140007019043,38.02799987792969 -41.99700164794922,23.945999145507812 C-46.277000427246094,12.53600025177002 -29.9060001373291,5.6539998054504395 -9.640999794006348,4.064000129699707 C3.0999999046325684,3.063999891281128 5.8979997634887695,-13.461000442504883 11.432000160217285,-25.97800064086914z"></path></g><g opacity="1" transform="matrix(1,0,0,1,236.22799682617188,99.11499786376953)"><path fill="rgb(180,106,21)" fill-opacity="1" d=" M13.322999954223633,8.704000473022461 C13.482999801635742,8.704000473022461 13.642000198364258,8.642000198364258 13.760000228881836,8.517000198364258 C13.991000175476074,8.274999618530273 13.980999946594238,7.892000198364258 13.73900032043457,7.663000106811523 C6.493000030517578,0.7730000019073486 -0.42899999022483826,-3.2850000858306885 -4.959000110626221,-5.478000164031982 C-9.88700008392334,-7.861000061035156 -13.062000274658203,-8.60099983215332 -13.194000244140625,-8.630999565124512 C-13.519000053405762,-8.704000473022461 -13.843000411987305,-8.501999855041504 -13.916999816894531,-8.177000045776367 C-13.991000175476074,-7.8520002365112305 -13.788000106811523,-7.5269999504089355 -13.463000297546387,-7.453000068664551 C-13.317999839782715,-7.420000076293945 -0.703000009059906,-4.4019999504089355 12.906999588012695,8.538000106811523 C13.02400016784668,8.64900016784668 13.173999786376953,8.704000473022461 13.322999954223633,8.704000473022461z"></path></g><g opacity="1" transform="matrix(1,0,0,1,238.5850067138672,96.2770004272461)"><path fill="rgb(180,106,21)" fill-opacity="1" d=" M8.572999954223633,3.4709999561309814 C8.767000198364258,3.4709999561309814 8.958000183105469,3.378000020980835 9.074000358581543,3.2039999961853027 C9.260000228881836,2.927999973297119 9.187000274658203,2.552999973297119 8.91100025177002,2.367000102996826 C8.628999710083008,2.177000045776367 1.8839999437332153,-2.296999931335449 -8.557999610900879,-3.436000108718872 C-8.888999938964844,-3.4709999561309814 -9.187999725341797,-3.2330000400543213 -9.223999977111816,-2.9010000228881836 C-9.260000228881836,-2.569999933242798 -9.020999908447266,-2.2720000743865967 -8.689000129699707,-2.234999895095825 C1.4589999914169312,-1.128000020980835 8.170000076293945,3.3239998817443848 8.236000061035156,3.368000030517578 C8.34000015258789,3.437999963760376 8.456999778747559,3.4709999561309814 8.572999954223633,3.4709999561309814z"></path></g><g opacity="1" transform="matrix(1,0,0,1,258.25799560546875,38.62099838256836)"><path fill="rgb(180,106,21)" fill-opacity="1" d=" M-5.754000186920166,11.354999542236328 C-5.453000068664551,11.354999542236328 -5.192999839782715,11.133000373840332 -5.15500020980835,10.82699966430664 C-4.2779998779296875,3.8420000076293945 -1.2740000486373901,-1.4980000257492065 1.093000054359436,-4.747000217437744 C3.6659998893737793,-8.281000137329102 6.064000129699707,-10.180000305175781 6.0879998207092285,-10.199000358581543 C6.349999904632568,-10.404999732971191 6.395999908447266,-10.784000396728516 6.190000057220459,-11.04699993133545 C5.985000133514404,-11.309000015258789 5.605000019073486,-11.354999542236328 5.343999862670898,-11.149999618530273 C5.241000175476074,-11.069999694824219 2.812000036239624,-9.151000022888184 0.1420000046491623,-5.49399995803833 C-2.316999912261963,-2.124000072479248 -5.441999912261963,3.4179999828338623 -6.354000091552734,10.677000045776367 C-6.394999980926514,11.008000373840332 -6.159999847412109,11.3100004196167 -5.828999996185303,11.35099983215332 C-5.803999900817871,11.354999542236328 -5.7779998779296875,11.354999542236328 -5.754000186920166,11.354999542236328z"></path></g><g opacity="1" transform="matrix(1,0,0,1,215.14100646972656,80.25299835205078)"><path fill="rgb(180,106,21)" fill-opacity="1" d=" M-67.552001953125,48.73899841308594 C-66.26799774169922,50.02199935913086 -64.8740005493164,51.24700164794922 -63.36199951171875,52.404998779296875 C-54.624000549316406,57.652000427246094 -43.965999603271484,61.10300064086914 -32.222999572753906,62.45199966430664 C-28.579999923706055,62.87099838256836 -24.905000686645508,63.077999114990234 -21.22599983215332,63.077999114990234 C-11.086000442504883,63.077999114990234 -0.925000011920929,61.49800109863281 8.656000137329102,58.39400100708008 C33.57500076293945,50.323001861572266 51.555999755859375,33.05400085449219 59.28499984741211,9.769000053405762 C63.52299880981445,-2.996999979019165 65.60399627685547,-15.411999702453613 65.46900177001953,-27.131999969482422 C65.36499786376953,-36.52000045776367 63.845001220703125,-45.48400115966797 60.95500183105469,-53.7760009765625 C59.99100112915039,-56.54100036621094 58.94300079345703,-59.040000915527344 57.880001068115234,-61.27399826049805 C57.10499954223633,-62.28499984741211 56.314998626708984,-63.2400016784668 55.51599884033203,-64.13600158691406 C55.066001892089844,-64.64299774169922 54.604000091552734,-65.13800048828125 54.130001068115234,-65.62100219726562 C56.02299880981445,-62.37799835205078 58.047000885009766,-58.257999420166016 59.7760009765625,-53.2859992980957 C64.2300033569336,-40.4630012512207 67.552001953125,-19.183000564575195 58.07400131225586,9.368000030517578 C50.47800064086914,32.257999420166016 32.7869987487793,49.237998962402344 8.26200008392334,57.18199920654297 C-17.79199981689453,65.62100219726562 -47.926998138427734,62.20000076293945 -66.7249984741211,48.66999816894531 C-66.98500061035156,48.483001708984375 -67.33499908447266,48.51900100708008 -67.552001953125,48.73899841308594z"></path></g></g><g transform="matrix(1.3799999952316284,0,0,1.3799999952316284,295.6628112792969,56.76953887939453)" opacity="1" style="display: block;"><g opacity="1" transform="matrix(1,0,0,1,18.14900016784668,28.209999084472656)"><path fill="rgb(3,23,0)" fill-opacity="1" d=" M-11.583000183105469,22.641000747680664 C-1.5110000371932983,22.549999237060547 8.392000198364258,27.958999633789062 17.89900016784668,21.398000717163086 C17.52899932861328,19.239999771118164 16.304000854492188,-0.8799999952316284 16.47599983215332,-3.9489998817443848 C16.81399917602539,-10.019000053405762 15.718999862670898,-26.930999755859375 3.2079999446868896,-27.44499969482422 C-9.303000450134277,-27.959999084472656 -17.899999618530273,-18.825000762939453 -14.02299976348877,-7.997000217437744 C-12.329000473022461,-3.265000104904175 -11.192999839782715,16.58300018310547 -11.583000183105469,22.641000747680664z"></path></g></g><g transform="matrix(1.3799999952316284,0,0,1.3799999952316284,246.239501953125,115.88321685791016)" opacity="1" style="display: block;"><g opacity="1" transform="matrix(1,0,0,1,23.506000518798828,29.788999557495117)"><path fill="rgb(206,111,48)" fill-opacity="1" d=" M-21.562999725341797,26.054000854492188 C-23.256000518798828,22.812999725341797 -21.999000549316406,18.812999725341797 -18.756999969482422,17.1200008392334 C-18.718000411987305,17.099000930786133 -14.791000366210938,15.045000076293945 -10.529000282287598,12.460000038146973 C-3.134000062942505,7.973999977111816 -1.5180000066757202,6.0279998779296875 -1.3519999980926514,5.814000129699707 C2.546999931335449,-0.5789999961853027 7.992000102996826,-17.86400032043457 9.765000343322754,-23.999000549316406 C10.779999732971191,-27.51300048828125 14.451000213623047,-29.538999557495117 17.96500015258789,-28.52400016784668 C21.47800064086914,-27.509000778198242 23.5049991607666,-23.836999893188477 22.48900032043457,-20.323999404907227 C21.78499984741211,-17.885000228881836 15.447999954223633,3.760999917984009 9.907999992370605,12.786999702453613 C8.664999961853027,14.814000129699707 6.031000137329102,17.875 -3.36899995803833,23.60700035095215 C-8.12399959564209,26.506000518798828 -12.447999954223633,28.767000198364258 -12.630000114440918,28.861000061035156 C-13.451000213623047,29.291000366210938 -14.321000099182129,29.52899932861328 -15.190999984741211,29.59600067138672 C-17.75,29.788999557495117 -20.299999237060547,28.475000381469727 -21.562999725341797,26.054000854492188z"></path></g></g><g transform="matrix(1.3799999952316284,0,0,1.3799999952316284,276.6671142578125,164.2259979248047)" opacity="1" style="display: block;"><g opacity="1" transform="matrix(1,0,0,1,3.4619998931884766,3.436000108718872)"><path fill="rgb(122,41,15)" fill-opacity="1" d=" M2.7639999389648438,2.934000015258789 C2.8499999046325684,2.9730000495910645 2.9519999027252197,2.9700000286102295 3.0369999408721924,2.9159998893737793 C3.171999931335449,2.8310000896453857 3.2119998931884766,2.6530001163482666 3.127000093460083,2.5190000534057617 C1.062999963760376,-0.753000020980835 -2.5889999866485596,-2.809000015258789 -2.743000030517578,-2.8949999809265137 C-2.88100004196167,-2.9730000495910645 -3.056999921798706,-2.921999931335449 -3.134000062942505,-2.7839999198913574 C-3.2119998931884766,-2.6449999809265137 -3.1619999408721924,-2.4690001010894775 -3.0230000019073486,-2.3919999599456787 C-2.986999988555908,-2.371999979019165 0.656000018119812,-0.3179999887943268 2.640000104904175,2.8259999752044678 C2.6710000038146973,2.875 2.7149999141693115,2.9119999408721924 2.7639999389648438,2.934000015258789z"></path></g><g opacity="1" transform="matrix(1,0,0,1,3.2909998893737793,0.8859999775886536)"><path fill="rgb(122,41,15)" fill-opacity="1" d=" M-1.8839999437332153,0.6000000238418579 C-1.812999963760376,0.6330000162124634 -1.7289999723434448,0.6359999775886536 -1.6510000228881836,0.6019999980926514 C-0.22200000286102295,-0.023000000044703484 1.6629999876022339,0.5669999718666077 1.680999994277954,0.5730000138282776 C1.8329999446868896,0.6209999918937683 1.9950000047683716,0.5379999876022339 2.0439999103546143,0.38600000739097595 C2.0920000076293945,0.23499999940395355 2.00600004196167,0.07400000095367432 1.8569999933242798,0.024000000208616257 C1.7710000276565552,-0.003000000026077032 -0.2549999952316284,-0.6359999775886536 -1.8799999952316284,0.07500000298023224 C-2.0260000228881836,0.13899999856948853 -2.0929999351501465,0.30799999833106995 -2.0299999713897705,0.45399999618530273 C-1.9989999532699585,0.5210000276565552 -1.9459999799728394,0.5720000267028809 -1.8839999437332153,0.6000000238418579z"></path></g></g></g></g></svg>
